# xmcd
# 
# Track frame offsets:
#     150
#     21175
#     44667
#     67945
#     93332
#     114072
#     134067
#     151655
#     170895
#     191067
#     212070
#     234765
# 
# Disc length: 3425
# 
# Revision: 6
# Processed by: cddbd v1.5.2PL0 Copyright (c) Steve Scherf et al.
# Submitted via: fre:ac v1.0.17
# 
DISCID=9e0d5f0c
DTITLE=Gerald  Levert and Eddie Levert, Sr. - Father And Son
DYEAR=1995
DGENRE=Soul
TTITLE0=For The Love
TTITLE1=I Got Your Back
TTITLE2=Already Missing You
TTITLE3=Wind Beneath My Wings
TTITLE4=I Got You
TTITLE5=Get Your Thing Off
TTITLE6=You Need Love
TTITLE7=Don't Make Me Beg
TTITLE8=You're Hurting Me
TTITLE9=I'm Savin' Your Place
TTITLE10=You Got Your Hooks In Me
TTITLE11=The Apple Don't Fall
EXTD=RECORD LABEL: EASTWEST RECORDS AMERICA\nRELEASE YEAR: 1995
EXTT0=
EXTT1=
EXTT2=
EXTT3=
EXTT4=
EXTT5=
EXTT6=
EXTT7=
EXTT8=
EXTT9=
EXTT10=
EXTT11=
PLAYORDER=
